<svg id="visual" viewBox="0 0 900 600" width="1200" height="1200" xmlns="http://www.w3.org/2000/svg" xmlns:xlink="http://www.w3.org/1999/xlink" version="1.1"><g transform="translate(447.0451840562288 291.80849569853194)"><path d="M119.9 -155.7C155.6 -139.1 184.8 -104.3 198.4 -64.1C212.1 -23.8 210.2 21.9 191.8 57.3C173.3 92.6 138.4 117.5 103.7 139.9C69 162.3 34.5 182.1 -2.8 186C-40.2 189.9 -80.3 177.9 -115.5 155.7C-150.7 133.4 -180.9 101 -193.8 62.7C-206.7 24.3 -202.3 -20 -187.8 -60C-173.4 -100 -149 -135.8 -116 -153.2C-83.1 -170.6 -41.5 -169.7 0.3 -170.1C42.1 -170.5 84.2 -172.2 119.9 -155.7" fill="#fe313b"></path></g></svg>