<svg id="visual" viewBox="0 0 900 600" width="1200" height="1200" xmlns="http://www.w3.org/2000/svg" xmlns:xlink="http://www.w3.org/1999/xlink" version="1.1"><g transform="translate(450.06673868482073 302.67931877569276)"><path d="M93.9 -134.5C121.6 -109 144 -81.6 163.2 -47.2C182.3 -12.9 198.1 28.3 191.4 66.2C184.6 104.1 155.2 138.6 119.5 158.7C83.9 178.8 41.9 184.4 4 178.8C-33.9 173.3 -67.8 156.6 -100.8 135.7C-133.7 114.7 -165.8 89.5 -181.5 55.6C-197.2 21.6 -196.6 -21 -181.9 -56.9C-167.3 -92.9 -138.6 -122.1 -105.9 -146C-73.3 -169.9 -36.6 -188.4 -1.8 -186C33.1 -183.5 66.1 -160 93.9 -134.5" fill="#63c5da"></path></g></svg>