<svg id="visual" viewBox="0 0 900 600" width="1200" height="1200" xmlns="http://www.w3.org/2000/svg" xmlns:xlink="http://www.w3.org/1999/xlink" version="1.1"><g transform="translate(450.66823194868425 300.2629767492095)"><path d="M110.6 -151.2C138.5 -131.9 152.9 -93.2 167.9 -53.1C182.9 -13.1 198.5 28.2 187.1 60C175.7 91.9 137.5 114.2 101.8 131.3C66.1 148.4 33.1 160.2 -4.2 166C-41.5 171.8 -83.1 171.7 -114 153.1C-144.9 134.4 -165.2 97.3 -178.3 57.7C-191.5 18.1 -197.5 -24 -187 -62.1C-176.4 -100.2 -149.3 -134.2 -115.4 -151.5C-81.5 -168.9 -40.8 -169.4 0.3 -169.8C41.3 -170.2 82.7 -170.5 110.6 -151.2" fill="#0492c2"></path></g></svg>