<svg id="visual" viewBox="0 0 900 600" width="900" height="600" xmlns="http://www.w3.org/2000/svg" xmlns:xlink="http://www.w3.org/1999/xlink" version="1.1"><path d="M0 291L75 246L150 287L225 290L300 237L375 274L450 245L525 249L600 253L675 264L750 274L825 278L900 235L900 0L825 0L750 0L675 0L600 0L525 0L450 0L375 0L300 0L225 0L150 0L75 0L0 0Z" fill="#f5730a"></path><path d="M0 198L75 200L150 237L225 191L300 237L375 206L450 187L525 233L600 230L675 214L750 196L825 200L900 197L900 0L825 0L750 0L675 0L600 0L525 0L450 0L375 0L300 0L225 0L150 0L75 0L0 0Z" fill="#da5b09"></path><path d="M0 147L75 183L150 159L225 150L300 178L375 159L450 146L525 144L600 141L675 152L750 138L825 148L900 161L900 0L825 0L750 0L675 0L600 0L525 0L450 0L375 0L300 0L225 0L150 0L75 0L0 0Z" fill="#be4407"></path><path d="M0 118L75 92L150 118L225 93L300 119L375 107L450 108L525 95L600 118L675 129L750 131L825 90L900 90L900 0L825 0L750 0L675 0L600 0L525 0L450 0L375 0L300 0L225 0L150 0L75 0L0 0Z" fill="#a32d04"></path><path d="M0 59L75 43L150 52L225 59L300 51L375 47L450 73L525 53L600 72L675 54L750 56L825 44L900 64L900 0L825 0L750 0L675 0L600 0L525 0L450 0L375 0L300 0L225 0L150 0L75 0L0 0Z" fill="#871400"></path></svg>