<svg id="visual" viewBox="0 0 900 600" width="1100" height="1100" xmlns="http://www.w3.org/2000/svg" xmlns:xlink="http://www.w3.org/1999/xlink" version="1.1"><g transform="translate(443.1572489767991 294.4390670673495)"><path d="M101.8 -136.9C134.6 -116.2 165.7 -90.1 184.2 -54.8C202.6 -19.5 208.3 25 192 58.4C175.7 91.9 137.5 114.2 101.8 137.6C66.1 161 33.1 185.5 -0.2 185.8C-33.5 186.1 -67 162.2 -101.6 138.5C-136.1 114.7 -171.7 91 -183.3 58.7C-195 26.5 -182.6 -14.4 -166.6 -51.1C-150.5 -87.8 -130.8 -120.4 -102.4 -142.5C-74.1 -164.6 -37 -176.3 -1.3 -174.5C34.5 -172.8 69 -157.6 101.8 -136.9" fill="#0492c2"></path></g></svg>