<svg id="visual" viewBox="0 0 900 600" width="900" height="600" xmlns="http://www.w3.org/2000/svg" xmlns:xlink="http://www.w3.org/1999/xlink" version="1.1"><path d="M0 267L100 229L200 270L300 258L400 227L500 257L600 232L700 246L800 294L900 218L900 601L800 601L700 601L600 601L500 601L400 601L300 601L200 601L100 601L0 601Z" fill="#62eaf4"></path><path d="M0 318L100 348L200 366L300 337L400 306L500 331L600 333L700 374L800 369L900 360L900 601L800 601L700 601L600 601L500 601L400 601L300 601L200 601L100 601L0 601Z" fill="#ffaea8"></path><path d="M0 410L100 414L200 421L300 433L400 434L500 434L600 394L700 390L800 437L900 398L900 601L800 601L700 601L600 601L500 601L400 601L300 601L200 601L100 601L0 601Z" fill="#e3c689"></path><path d="M0 495L100 524L200 500L300 487L400 485L500 500L600 498L700 498L800 488L900 484L900 601L800 601L700 601L600 601L500 601L400 601L300 601L200 601L100 601L0 601Z" fill="#a1dfaa"></path></svg>